<?xml version="1.0" encoding="UTF-8"?>
<svg id="Layer_1" data-name="Layer 1" xmlns="http://www.w3.org/2000/svg" viewBox="0 0 456.2 427.04">
  <defs>
<style>
  .cls-1,
  .cls-2,
  .cls-3,
  .cls-4 {
    fill: #284664;     /* pick any brand color */
    stroke: none;      /* removes outlines */
  }
</style>
  </defs>
  <g id="Logo_Top" data-name="Logo Top">
    <g id="cali">
      <path class="cls-4" d="M148.76,0l27.56,142.77,243.64,139.49c3.12,7.54,6.75,8.53,11.93,12.58,5.05,3.96,5.52,6.75,6.54,13.04,4.34-.26,10.45.02,11.96,5,1.84,6.09-8.94,10.39-9.91,18.27-1.26,10.25,11.24,23.12-1.08,29.79-.88,7.19,8.4,6.14,4.53,14.08,4.5,2.49,8.06-1.49,11.18,4.08,2.31,4.11.33,7.12-.27,11.55-28.98,10.9-57.93,22.69-87.43,32.17-7.76,2.49-21.73,9.9-18.88-3.83-7.72,3.1-6.83-9.22-9.9-14.94-4.69-8.75-24.62-16.39-33.24-20.8-2.69-1.37-8.05-6.84-10.76-5.44-1.03.53-1.65,2.36-3.08,2.65s-4.18-1.72-6.21-1.08c.43-5.91-4.08-12.91-10.49-11.08-2.45.7-4.27,3.14-7.09,3.56-2.89.43-16.1-2.48-18.67-3.92-2.38-1.33-2.66-5.02-5.1-6.2-9.08-4.41-13.74-.85-21.66-.77-3.71.04-7.93-2.63-13.77-1.52-2.37.45-10.85,4.73-11.66,4.35-.32-.15-1.3-2.89-2.53-3.85-1.59-1.24-4.86-1.77-5.46-2.98-.59-1.2.25-3-.08-4.24-.82-3.16-3.6-5.49-.43-8.8l-3.58-1.61-.84-12.51c-6.29-.89-10.1-1.18-12.3-8.08l1.82-2.52c-1.68-2.08-4.97-1.51-6.65-2.5-1.66-.99-17.26-13.78-18.43-15.29-1.56-2.02-1.35-5.12-3.69-6.93-1.53-1.18-3.82-.9-5.27-1.79-2.35-1.44-3.21-4.63-5.19-6.07-2.04-1.49-5.58-1.07-7.18-3.08-1.63-2.03-5.89-16.6-5.22-17.77l4.46.23c.37-5.09,1.81-8.76-1.77-13.26-3.99-5-6.2.81-10.86-.3-.71-.17-11.73-7.53-12.15-8.13-1.78-2.49-1.9-7.7-3.53-11.32-1.31-2.89-4.23-4.92-4.85-6.61-.87-2.35-.39-9.34-.54-12.29-2.57.12-4.02-1.92-6.07-2.75-2.22-.9-6.65-1.8-9.72-3.1-1.64-.69-.21-3.09-4.15-.27,1.92-4.87-4.26-9.54-.1-11.6-1.66-2.57-4.25-.85-4.46-.99-.91-.6-2.02-4.57-3.61-6.31-4.26-4.65-20.44-12.41-23.66-17.15-2.21-3.24-1.55-6.54-2.83-9.59-1.52-3.6-4.67-7.5-5.51-11.22-.91-4.05.47-9.01-.29-13.2-1.47-8.11-9.75-16.76-15.75-22.18-2.05-1.85-8.69-4.89-9.93-7.27-3.41-6.57-3.47-13.14-1.48-20.03,3.32-11.48,4.35-8.72,3.14-21.92-.35-3.78,1.33-7.5,1.47-11.04.4-10.12-2.77-16.53-9.7-23,2.76-.95.79-6.44.4-9.54L148.76,0ZM102.55,202l-10.65-3.4c1.9,3.18,1.64,6.27.84,9.79,3.64.19.82-2.53,2.1-3.84,1.58-1.61,5.5-2.03,7.71-2.55ZM100.6,214.59l-2.11.42,1.49,2.82-1.83,1.1c2.54,2.75,5.75,5.84,9.91,5.24.52-1.87-6.76-9.23-7.46-9.58Z"/>
      <path class="cls-4" d="M239.86,374.12c2.28,4.81-13.38,8.7-14.75,8.22-.31-.11-3.25-3.54-3.26-4.06,4.46-5.66,12.32-.91,18.01-4.16Z"/>
      <path class="cls-4" d="M218.33,378.77c.25.03,4.11,2.59,3.26,3.93-3.68,4.92-8.71,5.56-12.01.08-1.63-2.71,6.88-4.21,8.75-4.01Z"/>
      <path class="cls-4" d="M294.84,399.73c-7.92,3.1-5.71-.53-8.51-2.47-1.49-1.03-5.9.04-5.97-3.5,5.16-.16,14.34-1.11,14.48,5.97Z"/>
      <path class="cls-4" d="M298.64,424.46c-6.97,1.8-11.06-1.81-12.77-8.53.86-1.47,14.64,5.61,12.77,8.53Z"/>
    </g>
    <g id="Quasar">
      <path class="cls-3" d="M290.97,351.68c-10.04,10.33-10.55,25.78-14.08,39.46-.14.53-.12,1.21-.8.83-.37-.21-.31-.66-.34-1.04-1.12-14.42-2.51-34.46-13.36-43.65-8.79-7.45-18.21-7.29-27.98-10.55-1.32-.44-1.27-1.2.03-1.56,3.02-.82,7.36-.82,10.65-1.42,21.49-3.88,27.11-11.58,33.13-35.03.91-3.56,1.48-7.68,2.52-11.1.45-1.47.84-.8,1.11.34.85,3.56,1.02,8.89,1.63,12.77,1.84,11.77,4.17,22.67,13.54,29.26,7.73,5.44,17.58,7.49,26.43,9.38,1.1.83.74,1.22-.39,1.55-3.02.88-7.72.88-11.07,1.51-6.99,1.31-15.61,3.69-21.01,9.24Z"/>
      <path class="cls-4" d="M276.38,392.58c-.22-.01-.41-.12-.49-.16-.54-.3-.56-.9-.57-1.26,0-.06,0-.12,0-.18l-.05-.67c-1.1-14.23-2.61-33.71-13.13-42.62-6.07-5.14-12.4-6.6-19.09-8.15-2.85-.66-5.79-1.34-8.75-2.32-1.08-.36-1.29-.91-1.28-1.3.01-.39.25-.93,1.34-1.22,1.78-.48,4.01-.69,6.16-.89,1.55-.14,3.15-.29,4.52-.54,21.58-3.9,26.87-11.68,32.78-34.67.39-1.51.72-3.16,1.04-4.76.43-2.15.88-4.38,1.48-6.36.11-.36.36-1.2.94-1.18.55.02.82.83.99,1.54.51,2.15.78,4.94,1.04,7.63.18,1.87.35,3.63.6,5.19,1.88,12.02,4.19,22.49,13.34,28.93,7.54,5.31,17.28,7.39,25.87,9.23l.5.11.07.05c.44.33.94.79.85,1.39-.09.61-.72.87-1.38,1.06-1.78.52-4.14.74-6.42.95-1.62.15-3.3.31-4.69.57-6.26,1.18-15.23,3.4-20.79,9.12l-.29-.37.29.37c-7.5,7.72-9.65,18.55-11.73,29.04-.67,3.37-1.36,6.86-2.22,10.19-.02.08-.04.16-.05.24-.07.35-.16.78-.51.97-.12.07-.25.09-.36.08ZM233.91,335.94c.08.07.25.2.62.32,2.92.97,5.85,1.65,8.68,2.3,6.79,1.57,13.21,3.05,19.43,8.32,10.83,9.18,12.36,28.92,13.48,43.33l.05.67c0,.07,0,.15.01.22.01.34.03.38.09.41.03.02.05.03.07.04.02-.07.04-.17.05-.24.02-.1.04-.21.07-.31.85-3.3,1.54-6.77,2.21-10.12,2.11-10.64,4.29-21.63,12.01-29.57,5.74-5.9,14.87-8.17,21.24-9.37,1.43-.27,3.12-.42,4.76-.58,2.24-.21,4.56-.42,6.27-.92.38-.11.58-.21.67-.26-.05-.07-.16-.18-.35-.33l-.33-.07c-8.67-1.86-18.49-3.96-26.16-9.36-9.45-6.65-11.89-17.79-13.74-29.6-.25-1.59-.43-3.45-.6-5.25-.26-2.65-.52-5.4-1.02-7.48-.07-.29-.13-.48-.18-.61-.03.08-.06.17-.1.29-.58,1.93-1.03,4.13-1.46,6.25-.32,1.61-.66,3.28-1.06,4.82-2.81,10.95-5.74,19.4-10.88,25.08-4.8,5.29-11.35,8.28-22.6,10.31-1.4.25-3.02.4-4.58.55-2.12.2-4.32.4-6.03.86-.36.1-.53.21-.61.27Z"/>
    </g>
    <g>
      <g id="Type_Back" data-name="Type Back">
        <g>
          <path class="cls-1" d="M111.78,186.38c-1,.4-1.68,1.17-2.05,2.3-.37,1.13-.55,2.97-.55,5.5v49.6c0,2.53.18,4.37.55,5.5.37,1.13,1.07,1.9,2.1,2.3,1.03.4,2.65.67,4.85.8v2c-3.67-.2-8.9-.3-15.7-.3-7.13,0-12.4.1-15.8.3v-2c2.4-.13,4.15-.4,5.25-.8,1.1-.4,1.85-1.17,2.25-2.3.4-1.13.6-2.97.6-5.5v-52.3l-24.1,63h-1.6l-27-64.4v47.9c0,3.93.2,6.82.6,8.65.4,1.83,1.27,3.17,2.6,4,1.33.83,3.5,1.42,6.5,1.75v2c-2.6-.2-6.2-.3-10.8-.3-3.67,0-6.57.1-8.7.3v-2c2.2-.33,3.82-.9,4.85-1.7,1.03-.8,1.73-2.07,2.1-3.8.37-1.73.55-4.3.55-7.7v-45c0-2.53-.18-4.37-.55-5.5-.37-1.13-1.07-1.9-2.1-2.3-1.03-.4-2.65-.67-4.85-.8v-2c2.13.2,5.03.3,8.7.3,6.13,0,11.4-.1,15.8-.3l20.2,48.7,18.4-48.4h7.1c6.8,0,12.03-.1,15.7-.3v2c-2.27.13-3.9.4-4.9.8Z"/>
          <path class="cls-1" d="M133.83,251.78c-2.1-2.2-3.15-5.1-3.15-8.7,0-3,.78-5.48,2.35-7.45,1.57-1.97,3.47-3.48,5.7-4.55,2.23-1.07,5.08-2.2,8.55-3.4,3.67-1.27,6.35-2.42,8.05-3.45,1.7-1.03,2.55-2.45,2.55-4.25v-7.8c0-2.8-.65-4.98-1.95-6.55-1.3-1.57-3.32-2.35-6.05-2.35-3.2,0-5.63.8-7.3,2.4,1.87.67,3.32,1.67,4.35,3,1.03,1.33,1.55,2.9,1.55,4.7,0,2.27-.77,4.07-2.3,5.4-1.54,1.33-3.4,2-5.6,2-2.33,0-4.13-.73-5.4-2.2-1.27-1.47-1.9-3.3-1.9-5.5,0-1.87.45-3.45,1.35-4.75.9-1.3,2.28-2.52,4.15-3.65,1.8-1.07,4.02-1.9,6.65-2.5,2.63-.6,5.52-.9,8.65-.9s6.1.33,8.5,1c2.4.67,4.4,1.8,6,3.4,1.47,1.47,2.45,3.27,2.95,5.4.5,2.13.75,5.03.75,8.7v27.2c0,1.6.15,2.73.45,3.4.3.67.88,1,1.75,1,1,0,2.2-.57,3.6-1.7l1,1.7c-3,2.47-6.67,3.7-11,3.7-3.67,0-6.23-.73-7.7-2.2-1.47-1.47-2.23-3.43-2.3-5.9-3.33,5.4-8.23,8.1-14.7,8.1-4.27,0-7.45-1.1-9.55-3.3ZM157.88,244.58v-20.5c-.8,1.33-2.5,2.8-5.1,4.4-2.6,1.67-4.57,3.33-5.9,5-1.33,1.67-2,4.07-2,7.2,0,2.73.57,4.75,1.7,6.05,1.13,1.3,2.63,1.95,4.5,1.95,2.6,0,4.87-1.37,6.8-4.1Z"/>
          <path class="cls-1" d="M217.17,202.23c2.13.63,3.77,1.35,4.9,2.15.67.47,1.27.7,1.8.7.6,0,1.12-.32,1.55-.95.43-.63.72-1.55.85-2.75h2.1c-.27,3.4-.4,9.27-.4,17.6h-2.1c-.6-4.4-1.92-8.08-3.95-11.05-2.03-2.97-4.98-4.45-8.85-4.45-2,0-3.65.57-4.95,1.7-1.3,1.13-1.95,2.7-1.95,4.7,0,2.27.77,4.22,2.3,5.85,1.53,1.63,3.93,3.62,7.2,5.95l2.9,2.1c4.07,3.07,7.07,5.8,9,8.2s2.9,5.4,2.9,9c0,2.93-.85,5.53-2.55,7.8-1.7,2.27-3.98,4-6.85,5.2-2.87,1.2-6.03,1.8-9.5,1.8-3.67,0-6.8-.7-9.4-2.1-2.13-1.07-3.67-1.77-4.6-2.1-.67-.2-1.25.02-1.75.65-.5.63-.88,1.58-1.15,2.85h-2.1c.27-3.8.4-10.47.4-20h2.1c1.33,12.27,5.83,18.4,13.5,18.4,1.93,0,3.58-.58,4.95-1.75,1.37-1.17,2.05-2.95,2.05-5.35,0-1.87-.42-3.53-1.25-5-.83-1.47-1.88-2.77-3.15-3.9-1.27-1.13-3.17-2.7-5.7-4.7-3-2.4-5.28-4.33-6.85-5.8-1.57-1.47-2.9-3.2-4-5.2-1.1-2-1.65-4.23-1.65-6.7,0-4.27,1.67-7.63,5-10.1,3.33-2.47,7.4-3.7,12.2-3.7,2.53,0,4.87.32,7,.95Z"/>
          <path class="cls-1" d="M265.27,202.68h11.8v2h-11.8v40.4c0,2,.35,3.42,1.05,4.25.7.83,1.82,1.25,3.35,1.25,2.87,0,5.13-2,6.8-6l1.7.9c-2.53,6.87-7.1,10.3-13.7,10.3-4.4,0-7.73-1.13-10-3.4-1.4-1.4-2.35-3.15-2.85-5.25s-.75-4.98-.75-8.65v-33.8h-8.4v-2h8.4v-13.2c5.53,0,10.33-1.07,14.4-3.2v16.4Z"/>
          <path class="cls-1" d="M330.77,239.58l1.8.6c-1.33,4.33-3.72,8.02-7.15,11.05-3.43,3.03-7.72,4.55-12.85,4.55-7.07,0-12.68-2.25-16.85-6.75-4.17-4.5-6.25-11.15-6.25-19.95s2.23-15.88,6.7-20.65c4.46-4.77,10.4-7.15,17.8-7.15,12.53,0,18.8,7.4,18.8,22.2h-28.1c-.07,1-.1,2.57-.1,4.7,0,4.4.62,8.07,1.85,11,1.23,2.93,2.83,5.07,4.8,6.4,1.97,1.33,4.08,2,6.35,2,5.47,0,9.87-2.67,13.2-8ZM307.42,207.83c-1.57,2.97-2.55,7.55-2.95,13.75h15.7c.13-5.27-.38-9.62-1.55-13.05-1.17-3.43-2.92-5.15-5.25-5.15s-4.38,1.48-5.95,4.45Z"/>
          <path class="cls-1" d="M387.57,203.98c1.53,1.8,2.3,3.97,2.3,6.5s-.72,4.48-2.15,6.05c-1.43,1.57-3.32,2.35-5.65,2.35s-4.07-.58-5.4-1.75c-1.33-1.17-2-2.72-2-4.65,0-3.2,1.47-5.8,4.4-7.8-.27-.07-.67-.1-1.2-.1-.67,0-1.2.07-1.6.2-2.53.4-4.68,1.93-6.45,4.6-1.77,2.67-2.65,5.4-2.65,8.2v26.5c0,3.07.75,5.2,2.25,6.4,1.5,1.2,3.88,1.8,7.15,1.8v2.1c-.93,0-1.7-.03-2.3-.1-6.8-.2-11.33-.3-13.6-.3-1.8,0-5.9.1-12.3.3-.54.07-1.2.1-2,.1v-2.1c2.4,0,4.07-.52,5-1.55.93-1.03,1.4-2.92,1.4-5.65v-31.5c0-3.07-.47-5.3-1.4-6.7-.93-1.4-2.6-2.1-5-2.1v-2.1c2.13.2,4.2.3,6.2.3,5.93,0,10.8-.47,14.6-1.4v9.3c1.27-2.87,3.1-5.18,5.5-6.95,2.4-1.77,5.1-2.65,8.1-2.65s5.27.9,6.8,2.7Z"/>
          <path class="cls-1" d="M428.27,202.23c2.13.63,3.77,1.35,4.9,2.15.67.47,1.27.7,1.8.7.6,0,1.12-.32,1.55-.95.43-.63.72-1.55.85-2.75h2.1c-.27,3.4-.4,9.27-.4,17.6h-2.1c-.6-4.4-1.92-8.08-3.95-11.05-2.03-2.97-4.98-4.45-8.85-4.45-2,0-3.65.57-4.95,1.7-1.3,1.13-1.95,2.7-1.95,4.7,0,2.27.77,4.22,2.3,5.85,1.53,1.63,3.93,3.62,7.2,5.95l2.9,2.1c4.07,3.07,7.07,5.8,9,8.2s2.9,5.4,2.9,9c0,2.93-.85,5.53-2.55,7.8-1.7,2.27-3.98,4-6.85,5.2-2.87,1.2-6.03,1.8-9.5,1.8-3.67,0-6.8-.7-9.4-2.1-2.13-1.07-3.67-1.77-4.6-2.1-.67-.2-1.25.02-1.75.65-.5.63-.88,1.58-1.15,2.85h-2.1c.27-3.8.4-10.47.4-20h2.1c1.33,12.27,5.83,18.4,13.5,18.4,1.93,0,3.58-.58,4.95-1.75,1.37-1.17,2.05-2.95,2.05-5.35,0-1.87-.42-3.53-1.25-5-.83-1.47-1.88-2.77-3.15-3.9-1.27-1.13-3.17-2.7-5.7-4.7-3-2.4-5.28-4.33-6.85-5.8-1.57-1.47-2.9-3.2-4-5.2-1.1-2-1.65-4.23-1.65-6.7,0-4.27,1.67-7.63,5-10.1,3.33-2.47,7.4-3.7,12.2-3.7,2.53,0,4.87.32,7,.95Z"/>
        </g>
        <g>
          <path class="cls-2" d="M191.24,180.96c-.68,4.52-2.06,7.64-4.14,9.36-.88.72-1.99,1.29-3.33,1.71-1.34.42-2.81.63-4.41.63-2.16,0-4.29-.34-6.39-1.02-2.1-.68-4.69-1.7-7.77-3.06-.76-.32-1.59-.67-2.49-1.05-.9-.38-1.91-.79-3.03-1.23l-1.44-.42c-.76.4-1.59.71-2.49.93-.9.22-1.75.33-2.55.33-.84,0-1.52-.13-2.04-.39-.52-.26-.78-.65-.78-1.17,0-1.08,1.1-1.62,3.3-1.62,1.48,0,3,.28,4.56.84,1.36-.4,2.8-.94,4.32-1.62.28-.12.7-.29,1.26-.51.56-.22,1.06-.41,1.5-.57-3.72-.36-6.97-1.45-9.75-3.27-2.78-1.82-4.92-4.29-6.42-7.41s-2.25-6.76-2.25-10.92c0-4.4.9-8.3,2.7-11.7,1.8-3.4,4.31-6.04,7.53-7.92,3.22-1.88,6.89-2.82,11.01-2.82s7.95.86,11.13,2.58c3.18,1.72,5.65,4.21,7.41,7.47,1.76,3.26,2.64,7.15,2.64,11.67,0,4.24-.84,8.03-2.52,11.37-1.68,3.34-4.04,5.97-7.08,7.89-3.04,1.92-6.5,2.96-10.38,3.12-.96.12-1.82.3-2.58.54-.76.24-1.66.58-2.7,1.02-1.28.56-2.52,1.02-3.72,1.38l4.86.42c5.08.44,8.74.66,10.98.66,1.48,0,2.98-.1,4.5-.3,2.48-.28,4.44-.81,5.88-1.59,1.44-.78,2.64-1.99,3.6-3.63l1.08.3ZM158.39,171.24c1.02,3.16,2.4,5.6,4.14,7.32,1.74,1.72,3.67,2.58,5.79,2.58s4.14-.89,5.82-2.67c1.68-1.78,2.97-4.27,3.87-7.47.9-3.2,1.35-6.86,1.35-10.98s-.51-7.82-1.53-10.98c-1.02-3.16-2.4-5.6-4.14-7.32-1.74-1.72-3.67-2.58-5.79-2.58s-4.14.89-5.82,2.67c-1.68,1.78-2.97,4.27-3.87,7.47-.9,3.2-1.35,6.86-1.35,10.98s.51,7.82,1.53,10.98Z"/>
          <path class="cls-2" d="M223.22,174.84c0,1.84.29,3.18.87,4.02.58.84,1.57,1.26,2.97,1.26v1.26c-1.24-.12-2.48-.18-3.72-.18-3.48,0-6.4.28-8.76.84v-5.4c-1.84,3.72-5.06,5.58-9.66,5.58-3,0-5.18-.78-6.54-2.34-.64-.76-1.11-1.75-1.41-2.97-.3-1.22-.45-2.83-.45-4.83v-15.18c0-1.84-.29-3.18-.87-4.02-.58-.84-1.57-1.26-2.97-1.26v-1.26c1.24.12,2.48.18,3.72.18,3.48,0,6.4-.28,8.76-.84v24.84c0,1.68.25,2.94.75,3.78s1.45,1.26,2.85,1.26c1.6,0,2.97-.67,4.11-2.01,1.14-1.34,1.71-2.99,1.71-4.95v-15.72c0-1.84-.29-3.18-.87-4.02s-1.57-1.26-2.97-1.26v-1.26c1.28.12,2.52.18,3.72.18,3.48,0,6.4-.28,8.76-.84v25.14Z"/>
          <path class="cls-2" d="M231.89,179.82c-1.26-1.32-1.89-3.06-1.89-5.22,0-1.8.47-3.29,1.41-4.47.94-1.18,2.08-2.09,3.42-2.73,1.34-.64,3.05-1.32,5.13-2.04,2.2-.76,3.81-1.45,4.83-2.07,1.02-.62,1.53-1.47,1.53-2.55v-4.68c0-1.68-.39-2.99-1.17-3.93-.78-.94-1.99-1.41-3.63-1.41-1.92,0-3.38.48-4.38,1.44,1.12.4,1.99,1,2.61,1.8.62.8.93,1.74.93,2.82,0,1.36-.46,2.44-1.38,3.24-.92.8-2.04,1.2-3.36,1.2-1.4,0-2.48-.44-3.24-1.32-.76-.88-1.14-1.98-1.14-3.3,0-1.12.27-2.07.81-2.85.54-.78,1.37-1.51,2.49-2.19,1.08-.64,2.41-1.14,3.99-1.5,1.58-.36,3.31-.54,5.19-.54s3.66.2,5.1.6c1.44.4,2.64,1.08,3.6,2.04.88.88,1.47,1.96,1.77,3.24.3,1.28.45,3.02.45,5.22v16.32c0,.96.09,1.64.27,2.04.18.4.53.6,1.05.6.6,0,1.32-.34,2.16-1.02l.6,1.02c-1.8,1.48-4,2.22-6.6,2.22-2.2,0-3.74-.44-4.62-1.32-.88-.88-1.34-2.06-1.38-3.54-2,3.24-4.94,4.86-8.82,4.86-2.56,0-4.47-.66-5.73-1.98ZM246.32,175.5v-12.3c-.48.8-1.5,1.68-3.06,2.64-1.56,1-2.74,2-3.54,3-.8,1-1.2,2.44-1.2,4.32,0,1.64.34,2.85,1.02,3.63.68.78,1.58,1.17,2.7,1.17,1.56,0,2.92-.82,4.08-2.46Z"/>
          <path class="cls-2" d="M276.86,150.09c1.28.38,2.26.81,2.94,1.29.4.28.76.42,1.08.42.36,0,.67-.19.93-.57.26-.38.43-.93.51-1.65h1.26c-.16,2.04-.24,5.56-.24,10.56h-1.26c-.36-2.64-1.15-4.85-2.37-6.63-1.22-1.78-2.99-2.67-5.31-2.67-1.2,0-2.19.34-2.97,1.02-.78.68-1.17,1.62-1.17,2.82,0,1.36.46,2.53,1.38,3.51.92.98,2.36,2.17,4.32,3.57l1.74,1.26c2.44,1.84,4.24,3.48,5.4,4.92s1.74,3.24,1.74,5.4c0,1.76-.51,3.32-1.53,4.68-1.02,1.36-2.39,2.4-4.11,3.12-1.72.72-3.62,1.08-5.7,1.08-2.2,0-4.08-.42-5.64-1.26-1.28-.64-2.2-1.06-2.76-1.26-.4-.12-.75.01-1.05.39-.3.38-.53.95-.69,1.71h-1.26c.16-2.28.24-6.28.24-12h1.26c.8,7.36,3.5,11.04,8.1,11.04,1.16,0,2.15-.35,2.97-1.05.82-.7,1.23-1.77,1.23-3.21,0-1.12-.25-2.12-.75-3-.5-.88-1.13-1.66-1.89-2.34-.76-.68-1.9-1.62-3.42-2.82-1.8-1.44-3.17-2.6-4.11-3.48-.94-.88-1.74-1.92-2.4-3.12-.66-1.2-.99-2.54-.99-4.02,0-2.56,1-4.58,3-6.06,2-1.48,4.44-2.22,7.32-2.22,1.52,0,2.92.19,4.2.57Z"/>
          <path class="cls-2" d="M290.69,179.82c-1.26-1.32-1.89-3.06-1.89-5.22,0-1.8.47-3.29,1.41-4.47.94-1.18,2.08-2.09,3.42-2.73,1.34-.64,3.05-1.32,5.13-2.04,2.2-.76,3.81-1.45,4.83-2.07,1.02-.62,1.53-1.47,1.53-2.55v-4.68c0-1.68-.39-2.99-1.17-3.93-.78-.94-1.99-1.41-3.63-1.41-1.92,0-3.38.48-4.38,1.44,1.12.4,1.99,1,2.61,1.8.62.8.93,1.74.93,2.82,0,1.36-.46,2.44-1.38,3.24-.92.8-2.04,1.2-3.36,1.2-1.4,0-2.48-.44-3.24-1.32-.76-.88-1.14-1.98-1.14-3.3,0-1.12.27-2.07.81-2.85.54-.78,1.37-1.51,2.49-2.19,1.08-.64,2.41-1.14,3.99-1.5,1.58-.36,3.31-.54,5.19-.54s3.66.2,5.1.6c1.44.4,2.64,1.08,3.6,2.04.88.88,1.47,1.96,1.77,3.24.3,1.28.45,3.02.45,5.22v16.32c0,.96.09,1.64.27,2.04.18.4.53.6,1.05.6.6,0,1.32-.34,2.16-1.02l.6,1.02c-1.8,1.48-4,2.22-6.6,2.22-2.2,0-3.74-.44-4.62-1.32-.88-.88-1.34-2.06-1.38-3.54-2,3.24-4.94,4.86-8.82,4.86-2.56,0-4.47-.66-5.73-1.98ZM305.12,175.5v-12.3c-.48.8-1.5,1.68-3.06,2.64-1.56,1-2.74,2-3.54,3-.8,1-1.2,2.44-1.2,4.32,0,1.64.34,2.85,1.02,3.63.68.78,1.58,1.17,2.7,1.17,1.56,0,2.92-.82,4.08-2.46Z"/>
          <path class="cls-2" d="M344.29,151.14c.92,1.08,1.38,2.38,1.38,3.9s-.43,2.69-1.29,3.63c-.86.94-1.99,1.41-3.39,1.41s-2.44-.35-3.24-1.05c-.8-.7-1.2-1.63-1.2-2.79,0-1.92.88-3.48,2.64-4.68-.16-.04-.4-.06-.72-.06-.4,0-.72.04-.96.12-1.52.24-2.81,1.16-3.87,2.76-1.06,1.6-1.59,3.24-1.59,4.92v15.9c0,1.84.45,3.12,1.35,3.84.9.72,2.33,1.08,4.29,1.08v1.26c-.56,0-1.02-.02-1.38-.06-4.08-.12-6.8-.18-8.16-.18-1.08,0-3.54.06-7.38.18-.32.04-.72.06-1.2.06v-1.26c1.44,0,2.44-.31,3-.93.56-.62.84-1.75.84-3.39v-18.9c0-1.84-.28-3.18-.84-4.02-.56-.84-1.56-1.26-3-1.26v-1.26c1.28.12,2.52.18,3.72.18,3.56,0,6.48-.28,8.76-.84v5.58c.76-1.72,1.86-3.11,3.3-4.17,1.44-1.06,3.06-1.59,4.86-1.59s3.16.54,4.08,1.62Z"/>
          <path class="cls-2" d="M389.44,139.08c1.7.68,3.37,1.64,5.01,2.88.48.36.88.54,1.2.54.4,0,.72-.29.96-.87.24-.58.42-1.49.54-2.73h1.38c-.16,2.72-.24,7.56-.24,14.52h-1.38c-.32-2.72-.79-4.92-1.41-6.6s-1.65-3.1-3.09-4.26c-.96-.92-2.14-1.64-3.54-2.16-1.4-.52-2.84-.78-4.32-.78-2.8,0-5.13.95-6.99,2.85-1.86,1.9-3.23,4.41-4.11,7.53-.88,3.12-1.32,6.54-1.32,10.26,0,13.84,3.84,20.76,11.52,20.76,1.76,0,3.18-.4,4.26-1.2.52-.36.89-.78,1.11-1.26.22-.48.33-1.1.33-1.86v-5.88c0-1.88-.16-3.25-.48-4.11-.32-.86-.89-1.45-1.71-1.77-.82-.32-2.11-.52-3.87-.6v-1.2c2.48.12,5.9.18,10.26.18,3.56,0,6.24-.06,8.04-.18v1.2c-.8.08-1.38.24-1.74.48-.36.24-.61.7-.75,1.38-.14.68-.21,1.78-.21,3.3v11.88h-1.2c-.04-.84-.21-1.62-.51-2.34-.3-.72-.71-1.08-1.23-1.08-.68,0-1.76.42-3.24,1.26-3.48,2-6.76,3-9.84,3-6.92,0-12.22-1.89-15.9-5.67-3.68-3.78-5.52-9.09-5.52-15.93,0-4.48.93-8.42,2.79-11.82,1.86-3.4,4.43-6.04,7.71-7.92,3.28-1.88,7.02-2.82,11.22-2.82,2.48,0,4.57.34,6.27,1.02Z"/>
          <path class="cls-2" d="M432.91,139.08c1.68.68,3.32,1.64,4.92,2.88.44.36.82.54,1.14.54.8,0,1.32-1.2,1.56-3.6h1.38c-.16,2.72-.24,7.56-.24,14.52h-1.38c-.36-2.96-.84-5.22-1.44-6.78-.6-1.56-1.62-2.92-3.06-4.08-1-.96-2.16-1.69-3.48-2.19-1.32-.5-2.7-.75-4.14-.75-4.04,0-7.04,1.97-9,5.91-1.96,3.94-2.94,8.85-2.94,14.73s1.02,10.72,3.06,14.64c2.04,3.92,5.08,5.88,9.12,5.88,1.36,0,2.71-.25,4.05-.75,1.34-.5,2.47-1.23,3.39-2.19,1.48-1.12,2.51-2.52,3.09-4.2.58-1.68,1.03-4.14,1.35-7.38h1.38c0,7.24.08,12.28.24,15.12h-1.38c-.12-1.28-.29-2.19-.51-2.73s-.53-.81-.93-.81c-.32,0-.74.16-1.26.48-1.8,1.28-3.52,2.25-5.16,2.91-1.64.66-3.62.99-5.94.99-4.24,0-7.95-.86-11.13-2.58-3.18-1.72-5.65-4.21-7.41-7.47-1.76-3.26-2.64-7.15-2.64-11.67s.9-8.3,2.7-11.7c1.8-3.4,4.31-6.04,7.53-7.92,3.22-1.88,6.89-2.82,11.01-2.82,2.4,0,4.44.34,6.12,1.02Z"/>
        </g>
      </g>
      <g id="Type_Front" data-name="Type Front">
        <g>
          <path class="cls-2" d="M191.24,180.96c-.68,4.52-2.06,7.64-4.14,9.36-.88.72-1.99,1.29-3.33,1.71-1.34.42-2.81.63-4.41.63-2.16,0-4.29-.34-6.39-1.02-2.1-.68-4.69-1.7-7.77-3.06-.76-.32-1.59-.67-2.49-1.05-.9-.38-1.91-.79-3.03-1.23l-1.44-.42c-.76.4-1.59.71-2.49.93-.9.22-1.75.33-2.55.33-.84,0-1.52-.13-2.04-.39-.52-.26-.78-.65-.78-1.17,0-1.08,1.1-1.62,3.3-1.62,1.48,0,3,.28,4.56.84,1.36-.4,2.8-.94,4.32-1.62.28-.12.7-.29,1.26-.51.56-.22,1.06-.41,1.5-.57-3.72-.36-6.97-1.45-9.75-3.27-2.78-1.82-4.92-4.29-6.42-7.41s-2.25-6.76-2.25-10.92c0-4.4.9-8.3,2.7-11.7,1.8-3.4,4.31-6.04,7.53-7.92,3.22-1.88,6.89-2.82,11.01-2.82s7.95.86,11.13,2.58c3.18,1.72,5.65,4.21,7.41,7.47,1.76,3.26,2.64,7.15,2.64,11.67,0,4.24-.84,8.03-2.52,11.37-1.68,3.34-4.04,5.97-7.08,7.89-3.04,1.92-6.5,2.96-10.38,3.12-.96.12-1.82.3-2.58.54-.76.24-1.66.58-2.7,1.02-1.28.56-2.52,1.02-3.72,1.38l4.86.42c5.08.44,8.74.66,10.98.66,1.48,0,2.98-.1,4.5-.3,2.48-.28,4.44-.81,5.88-1.59,1.44-.78,2.64-1.99,3.6-3.63l1.08.3ZM158.39,171.24c1.02,3.16,2.4,5.6,4.14,7.32,1.74,1.72,3.67,2.58,5.79,2.58s4.14-.89,5.82-2.67c1.68-1.78,2.97-4.27,3.87-7.47.9-3.2,1.35-6.86,1.35-10.98s-.51-7.82-1.53-10.98c-1.02-3.16-2.4-5.6-4.14-7.32-1.74-1.72-3.67-2.58-5.79-2.58s-4.14.89-5.82,2.67c-1.68,1.78-2.97,4.27-3.87,7.47-.9,3.2-1.35,6.86-1.35,10.98s.51,7.82,1.53,10.98Z"/>
          <path class="cls-2" d="M223.22,174.84c0,1.84.29,3.18.87,4.02.58.84,1.57,1.26,2.97,1.26v1.26c-1.24-.12-2.48-.18-3.72-.18-3.48,0-6.4.28-8.76.84v-5.4c-1.84,3.72-5.06,5.58-9.66,5.58-3,0-5.18-.78-6.54-2.34-.64-.76-1.11-1.75-1.41-2.97-.3-1.22-.45-2.83-.45-4.83v-15.18c0-1.84-.29-3.18-.87-4.02-.58-.84-1.57-1.26-2.97-1.26v-1.26c1.24.12,2.48.18,3.72.18,3.48,0,6.4-.28,8.76-.84v24.84c0,1.68.25,2.94.75,3.78s1.45,1.26,2.85,1.26c1.6,0,2.97-.67,4.11-2.01,1.14-1.34,1.71-2.99,1.71-4.95v-15.72c0-1.84-.29-3.18-.87-4.02s-1.57-1.26-2.97-1.26v-1.26c1.28.12,2.52.18,3.72.18,3.48,0,6.4-.28,8.76-.84v25.14Z"/>
          <path class="cls-2" d="M231.89,179.82c-1.26-1.32-1.89-3.06-1.89-5.22,0-1.8.47-3.29,1.41-4.47.94-1.18,2.08-2.09,3.42-2.73,1.34-.64,3.05-1.32,5.13-2.04,2.2-.76,3.81-1.45,4.83-2.07,1.02-.62,1.53-1.47,1.53-2.55v-4.68c0-1.68-.39-2.99-1.17-3.93-.78-.94-1.99-1.41-3.63-1.41-1.92,0-3.38.48-4.38,1.44,1.12.4,1.99,1,2.61,1.8.62.8.93,1.74.93,2.82,0,1.36-.46,2.44-1.38,3.24-.92.8-2.04,1.2-3.36,1.2-1.4,0-2.48-.44-3.24-1.32-.76-.88-1.14-1.98-1.14-3.3,0-1.12.27-2.07.81-2.85.54-.78,1.37-1.51,2.49-2.19,1.08-.64,2.41-1.14,3.99-1.5,1.58-.36,3.31-.54,5.19-.54s3.66.2,5.1.6c1.44.4,2.64,1.08,3.6,2.04.88.88,1.47,1.96,1.77,3.24.3,1.28.45,3.02.45,5.22v16.32c0,.96.09,1.64.27,2.04.18.4.53.6,1.05.6.6,0,1.32-.34,2.16-1.02l.6,1.02c-1.8,1.48-4,2.22-6.6,2.22-2.2,0-3.74-.44-4.62-1.32-.88-.88-1.34-2.06-1.38-3.54-2,3.24-4.94,4.86-8.82,4.86-2.56,0-4.47-.66-5.73-1.98ZM246.32,175.5v-12.3c-.48.8-1.5,1.68-3.06,2.64-1.56,1-2.74,2-3.54,3-.8,1-1.2,2.44-1.2,4.32,0,1.64.34,2.85,1.02,3.63.68.78,1.58,1.17,2.7,1.17,1.56,0,2.92-.82,4.08-2.46Z"/>
          <path class="cls-2" d="M276.86,150.09c1.28.38,2.26.81,2.94,1.29.4.28.76.42,1.08.42.36,0,.67-.19.93-.57.26-.38.43-.93.51-1.65h1.26c-.16,2.04-.24,5.56-.24,10.56h-1.26c-.36-2.64-1.15-4.85-2.37-6.63-1.22-1.78-2.99-2.67-5.31-2.67-1.2,0-2.19.34-2.97,1.02-.78.68-1.17,1.62-1.17,2.82,0,1.36.46,2.53,1.38,3.51.92.98,2.36,2.17,4.32,3.57l1.74,1.26c2.44,1.84,4.24,3.48,5.4,4.92s1.74,3.24,1.74,5.4c0,1.76-.51,3.32-1.53,4.68-1.02,1.36-2.39,2.4-4.11,3.12-1.72.72-3.62,1.08-5.7,1.08-2.2,0-4.08-.42-5.64-1.26-1.28-.64-2.2-1.06-2.76-1.26-.4-.12-.75.01-1.05.39-.3.38-.53.95-.69,1.71h-1.26c.16-2.28.24-6.28.24-12h1.26c.8,7.36,3.5,11.04,8.1,11.04,1.16,0,2.15-.35,2.97-1.05.82-.7,1.23-1.77,1.23-3.21,0-1.12-.25-2.12-.75-3-.5-.88-1.13-1.66-1.89-2.34-.76-.68-1.9-1.62-3.42-2.82-1.8-1.44-3.17-2.6-4.11-3.48-.94-.88-1.74-1.92-2.4-3.12-.66-1.2-.99-2.54-.99-4.02,0-2.56,1-4.58,3-6.06,2-1.48,4.44-2.22,7.32-2.22,1.52,0,2.92.19,4.2.57Z"/>
          <path class="cls-2" d="M290.69,179.82c-1.26-1.32-1.89-3.06-1.89-5.22,0-1.8.47-3.29,1.41-4.47.94-1.18,2.08-2.09,3.42-2.73,1.34-.64,3.05-1.32,5.13-2.04,2.2-.76,3.81-1.45,4.83-2.07,1.02-.62,1.53-1.47,1.53-2.55v-4.68c0-1.68-.39-2.99-1.17-3.93-.78-.94-1.99-1.41-3.63-1.41-1.92,0-3.38.48-4.38,1.44,1.12.4,1.99,1,2.61,1.8.62.8.93,1.74.93,2.82,0,1.36-.46,2.44-1.38,3.24-.92.8-2.04,1.2-3.36,1.2-1.4,0-2.48-.44-3.24-1.32-.76-.88-1.14-1.98-1.14-3.3,0-1.12.27-2.07.81-2.85.54-.78,1.37-1.51,2.49-2.19,1.08-.64,2.41-1.14,3.99-1.5,1.58-.36,3.31-.54,5.19-.54s3.66.2,5.1.6c1.44.4,2.64,1.08,3.6,2.04.88.88,1.47,1.96,1.77,3.24.3,1.28.45,3.02.45,5.22v16.32c0,.96.09,1.64.27,2.04.18.4.53.6,1.05.6.6,0,1.32-.34,2.16-1.02l.6,1.02c-1.8,1.48-4,2.22-6.6,2.22-2.2,0-3.74-.44-4.62-1.32-.88-.88-1.34-2.06-1.38-3.54-2,3.24-4.94,4.86-8.82,4.86-2.56,0-4.47-.66-5.73-1.98ZM305.12,175.5v-12.3c-.48.8-1.5,1.68-3.06,2.64-1.56,1-2.74,2-3.54,3-.8,1-1.2,2.44-1.2,4.32,0,1.64.34,2.85,1.02,3.63.68.78,1.58,1.17,2.7,1.17,1.56,0,2.92-.82,4.08-2.46Z"/>
          <path class="cls-2" d="M344.29,151.14c.92,1.08,1.38,2.38,1.38,3.9s-.43,2.69-1.29,3.63c-.86.94-1.99,1.41-3.39,1.41s-2.44-.35-3.24-1.05c-.8-.7-1.2-1.63-1.2-2.79,0-1.92.88-3.48,2.64-4.68-.16-.04-.4-.06-.72-.06-.4,0-.72.04-.96.12-1.52.24-2.81,1.16-3.87,2.76-1.06,1.6-1.59,3.24-1.59,4.92v15.9c0,1.84.45,3.12,1.35,3.84.9.72,2.33,1.08,4.29,1.08v1.26c-.56,0-1.02-.02-1.38-.06-4.08-.12-6.8-.18-8.16-.18-1.08,0-3.54.06-7.38.18-.32.04-.72.06-1.2.06v-1.26c1.44,0,2.44-.31,3-.93.56-.62.84-1.75.84-3.39v-18.9c0-1.84-.28-3.18-.84-4.02-.56-.84-1.56-1.26-3-1.26v-1.26c1.28.12,2.52.18,3.72.18,3.56,0,6.48-.28,8.76-.84v5.58c.76-1.72,1.86-3.11,3.3-4.17,1.44-1.06,3.06-1.59,4.86-1.59s3.16.54,4.08,1.62Z"/>
          <path class="cls-2" d="M389.44,139.08c1.7.68,3.37,1.64,5.01,2.88.48.36.88.54,1.2.54.4,0,.72-.29.96-.87.24-.58.42-1.49.54-2.73h1.38c-.16,2.72-.24,7.56-.24,14.52h-1.38c-.32-2.72-.79-4.92-1.41-6.6s-1.65-3.1-3.09-4.26c-.96-.92-2.14-1.64-3.54-2.16-1.4-.52-2.84-.78-4.32-.78-2.8,0-5.13.95-6.99,2.85-1.86,1.9-3.23,4.41-4.11,7.53-.88,3.12-1.32,6.54-1.32,10.26,0,13.84,3.84,20.76,11.52,20.76,1.76,0,3.18-.4,4.26-1.2.52-.36.89-.78,1.11-1.26.22-.48.33-1.1.33-1.86v-5.88c0-1.88-.16-3.25-.48-4.11-.32-.86-.89-1.45-1.71-1.77-.82-.32-2.11-.52-3.87-.6v-1.2c2.48.12,5.9.18,10.26.18,3.56,0,6.24-.06,8.04-.18v1.2c-.8.08-1.38.24-1.74.48-.36.24-.61.7-.75,1.38-.14.68-.21,1.78-.21,3.3v11.88h-1.2c-.04-.84-.21-1.62-.51-2.34-.3-.72-.71-1.08-1.23-1.08-.68,0-1.76.42-3.24,1.26-3.48,2-6.76,3-9.84,3-6.92,0-12.22-1.89-15.9-5.67-3.68-3.78-5.52-9.09-5.52-15.93,0-4.48.93-8.42,2.79-11.82,1.86-3.4,4.43-6.04,7.71-7.92,3.28-1.88,7.02-2.82,11.22-2.82,2.48,0,4.57.34,6.27,1.02Z"/>
          <path class="cls-2" d="M432.91,139.08c1.68.68,3.32,1.64,4.92,2.88.44.36.82.54,1.14.54.8,0,1.32-1.2,1.56-3.6h1.38c-.16,2.72-.24,7.56-.24,14.52h-1.38c-.36-2.96-.84-5.22-1.44-6.78-.6-1.56-1.62-2.92-3.06-4.08-1-.96-2.16-1.69-3.48-2.19-1.32-.5-2.7-.75-4.14-.75-4.04,0-7.04,1.97-9,5.91-1.96,3.94-2.94,8.85-2.94,14.73s1.02,10.72,3.06,14.64c2.04,3.92,5.08,5.88,9.12,5.88,1.36,0,2.71-.25,4.05-.75,1.34-.5,2.47-1.23,3.39-2.19,1.48-1.12,2.51-2.52,3.09-4.2.58-1.68,1.03-4.14,1.35-7.38h1.38c0,7.24.08,12.28.24,15.12h-1.38c-.12-1.28-.29-2.19-.51-2.73s-.53-.81-.93-.81c-.32,0-.74.16-1.26.48-1.8,1.28-3.52,2.25-5.16,2.91-1.64.66-3.62.99-5.94.99-4.24,0-7.95-.86-11.13-2.58-3.18-1.72-5.65-4.21-7.41-7.47-1.76-3.26-2.64-7.15-2.64-11.67s.9-8.3,2.7-11.7c1.8-3.4,4.31-6.04,7.53-7.92,3.22-1.88,6.89-2.82,11.01-2.82,2.4,0,4.44.34,6.12,1.02Z"/>
        </g>
        <g>
          <path class="cls-1" d="M111.78,186.38c-1,.4-1.68,1.17-2.05,2.3-.37,1.13-.55,2.97-.55,5.5v49.6c0,2.53.18,4.37.55,5.5.37,1.13,1.07,1.9,2.1,2.3,1.03.4,2.65.67,4.85.8v2c-3.67-.2-8.9-.3-15.7-.3-7.13,0-12.4.1-15.8.3v-2c2.4-.13,4.15-.4,5.25-.8,1.1-.4,1.85-1.17,2.25-2.3.4-1.13.6-2.97.6-5.5v-52.3l-24.1,63h-1.6l-27-64.4v47.9c0,3.93.2,6.82.6,8.65.4,1.83,1.27,3.17,2.6,4,1.33.83,3.5,1.42,6.5,1.75v2c-2.6-.2-6.2-.3-10.8-.3-3.67,0-6.57.1-8.7.3v-2c2.2-.33,3.82-.9,4.85-1.7,1.03-.8,1.73-2.07,2.1-3.8.37-1.73.55-4.3.55-7.7v-45c0-2.53-.18-4.37-.55-5.5-.37-1.13-1.07-1.9-2.1-2.3-1.03-.4-2.65-.67-4.85-.8v-2c2.13.2,5.03.3,8.7.3,6.13,0,11.4-.1,15.8-.3l20.2,48.7,18.4-48.4h7.1c6.8,0,12.03-.1,15.7-.3v2c-2.27.13-3.9.4-4.9.8Z"/>
          <path class="cls-1" d="M133.83,251.78c-2.1-2.2-3.15-5.1-3.15-8.7,0-3,.78-5.48,2.35-7.45,1.57-1.97,3.47-3.48,5.7-4.55,2.23-1.07,5.08-2.2,8.55-3.4,3.67-1.27,6.35-2.42,8.05-3.45,1.7-1.03,2.55-2.45,2.55-4.25v-7.8c0-2.8-.65-4.98-1.95-6.55-1.3-1.57-3.32-2.35-6.05-2.35-3.2,0-5.63.8-7.3,2.4,1.87.67,3.32,1.67,4.35,3,1.03,1.33,1.55,2.9,1.55,4.7,0,2.27-.77,4.07-2.3,5.4-1.54,1.33-3.4,2-5.6,2-2.33,0-4.13-.73-5.4-2.2-1.27-1.47-1.9-3.3-1.9-5.5,0-1.87.45-3.45,1.35-4.75.9-1.3,2.28-2.52,4.15-3.65,1.8-1.07,4.02-1.9,6.65-2.5,2.63-.6,5.52-.9,8.65-.9s6.1.33,8.5,1c2.4.67,4.4,1.8,6,3.4,1.47,1.47,2.45,3.27,2.95,5.4.5,2.13.75,5.03.75,8.7v27.2c0,1.6.15,2.73.45,3.4.3.67.88,1,1.75,1,1,0,2.2-.57,3.6-1.7l1,1.7c-3,2.47-6.67,3.7-11,3.7-3.67,0-6.23-.73-7.7-2.2-1.47-1.47-2.23-3.43-2.3-5.9-3.33,5.4-8.23,8.1-14.7,8.1-4.27,0-7.45-1.1-9.55-3.3ZM157.88,244.58v-20.5c-.8,1.33-2.5,2.8-5.1,4.4-2.6,1.67-4.57,3.33-5.9,5-1.33,1.67-2,4.07-2,7.2,0,2.73.57,4.75,1.7,6.05,1.13,1.3,2.63,1.95,4.5,1.95,2.6,0,4.87-1.37,6.8-4.1Z"/>
          <path class="cls-1" d="M217.17,202.23c2.13.63,3.77,1.35,4.9,2.15.67.47,1.27.7,1.8.7.6,0,1.12-.32,1.55-.95.43-.63.72-1.55.85-2.75h2.1c-.27,3.4-.4,9.27-.4,17.6h-2.1c-.6-4.4-1.92-8.08-3.95-11.05-2.03-2.97-4.98-4.45-8.85-4.45-2,0-3.65.57-4.95,1.7-1.3,1.13-1.95,2.7-1.95,4.7,0,2.27.77,4.22,2.3,5.85,1.53,1.63,3.93,3.62,7.2,5.95l2.9,2.1c4.07,3.07,7.07,5.8,9,8.2s2.9,5.4,2.9,9c0,2.93-.85,5.53-2.55,7.8-1.7,2.27-3.98,4-6.85,5.2-2.87,1.2-6.03,1.8-9.5,1.8-3.67,0-6.8-.7-9.4-2.1-2.13-1.07-3.67-1.77-4.6-2.1-.67-.2-1.25.02-1.75.65-.5.63-.88,1.58-1.15,2.85h-2.1c.27-3.8.4-10.47.4-20h2.1c1.33,12.27,5.83,18.4,13.5,18.4,1.93,0,3.58-.58,4.95-1.75,1.37-1.17,2.05-2.95,2.05-5.35,0-1.87-.42-3.53-1.25-5-.83-1.47-1.88-2.77-3.15-3.9-1.27-1.13-3.17-2.7-5.7-4.7-3-2.4-5.28-4.33-6.85-5.8-1.57-1.47-2.9-3.2-4-5.2-1.1-2-1.65-4.23-1.65-6.7,0-4.27,1.67-7.63,5-10.1,3.33-2.47,7.4-3.7,12.2-3.7,2.53,0,4.87.32,7,.95Z"/>
          <path class="cls-1" d="M265.27,202.68h11.8v2h-11.8v40.4c0,2,.35,3.42,1.05,4.25.7.83,1.82,1.25,3.35,1.25,2.87,0,5.13-2,6.8-6l1.7.9c-2.53,6.87-7.1,10.3-13.7,10.3-4.4,0-7.73-1.13-10-3.4-1.4-1.4-2.35-3.15-2.85-5.25s-.75-4.98-.75-8.65v-33.8h-8.4v-2h8.4v-13.2c5.53,0,10.33-1.07,14.4-3.2v16.4Z"/>
          <path class="cls-1" d="M330.77,239.58l1.8.6c-1.33,4.33-3.72,8.02-7.15,11.05-3.43,3.03-7.72,4.55-12.85,4.55-7.07,0-12.68-2.25-16.85-6.75-4.17-4.5-6.25-11.15-6.25-19.95s2.23-15.88,6.7-20.65c4.46-4.77,10.4-7.15,17.8-7.15,12.53,0,18.8,7.4,18.8,22.2h-28.1c-.07,1-.1,2.57-.1,4.7,0,4.4.62,8.07,1.85,11,1.23,2.93,2.83,5.07,4.8,6.4,1.97,1.33,4.08,2,6.35,2,5.47,0,9.87-2.67,13.2-8ZM307.42,207.83c-1.57,2.97-2.55,7.55-2.95,13.75h15.7c.13-5.27-.38-9.62-1.55-13.05-1.17-3.43-2.92-5.15-5.25-5.15s-4.38,1.48-5.95,4.45Z"/>
          <path class="cls-1" d="M387.57,203.98c1.53,1.8,2.3,3.97,2.3,6.5s-.72,4.48-2.15,6.05c-1.43,1.57-3.32,2.35-5.65,2.35s-4.07-.58-5.4-1.75c-1.33-1.17-2-2.72-2-4.65,0-3.2,1.47-5.8,4.4-7.8-.27-.07-.67-.1-1.2-.1-.67,0-1.2.07-1.6.2-2.53.4-4.68,1.93-6.45,4.6-1.77,2.67-2.65,5.4-2.65,8.2v26.5c0,3.07.75,5.2,2.25,6.4,1.5,1.2,3.88,1.8,7.15,1.8v2.1c-.93,0-1.7-.03-2.3-.1-6.8-.2-11.33-.3-13.6-.3-1.8,0-5.9.1-12.3.3-.54.07-1.2.1-2,.1v-2.1c2.4,0,4.07-.52,5-1.55.93-1.03,1.4-2.92,1.4-5.65v-31.5c0-3.07-.47-5.3-1.4-6.7-.93-1.4-2.6-2.1-5-2.1v-2.1c2.13.2,4.2.3,6.2.3,5.93,0,10.8-.47,14.6-1.4v9.3c1.27-2.87,3.1-5.18,5.5-6.95,2.4-1.77,5.1-2.65,8.1-2.65s5.27.9,6.8,2.7Z"/>
          <path class="cls-1" d="M428.27,202.23c2.13.63,3.77,1.35,4.9,2.15.67.47,1.27.7,1.8.7.6,0,1.12-.32,1.55-.95.43-.63.72-1.55.85-2.75h2.1c-.27,3.4-.4,9.27-.4,17.6h-2.1c-.6-4.4-1.92-8.08-3.95-11.05-2.03-2.97-4.98-4.45-8.85-4.45-2,0-3.65.57-4.95,1.7-1.3,1.13-1.95,2.7-1.95,4.7,0,2.27.77,4.22,2.3,5.85,1.53,1.63,3.93,3.62,7.2,5.95l2.9,2.1c4.07,3.07,7.07,5.8,9,8.2s2.9,5.4,2.9,9c0,2.93-.85,5.53-2.55,7.8-1.7,2.27-3.98,4-6.85,5.2-2.87,1.2-6.03,1.8-9.5,1.8-3.67,0-6.8-.7-9.4-2.1-2.13-1.07-3.67-1.77-4.6-2.1-.67-.2-1.25.02-1.75.65-.5.63-.88,1.58-1.15,2.85h-2.1c.27-3.8.4-10.47.4-20h2.1c1.33,12.27,5.83,18.4,13.5,18.4,1.93,0,3.58-.58,4.95-1.75,1.37-1.17,2.05-2.95,2.05-5.35,0-1.87-.42-3.53-1.25-5-.83-1.47-1.88-2.77-3.15-3.9-1.27-1.13-3.17-2.7-5.7-4.7-3-2.4-5.28-4.33-6.85-5.8-1.57-1.47-2.9-3.2-4-5.2-1.1-2-1.65-4.23-1.65-6.7,0-4.27,1.67-7.63,5-10.1,3.33-2.47,7.4-3.7,12.2-3.7,2.53,0,4.87.32,7,.95Z"/>
        </g>
      </g>
    </g>
  </g>
</svg>
